<svg xmlns="http://www.w3.org/2000/svg" xmlns:xlink="http://www.w3.org/1999/xlink" width="934.97" height="1080" style=""><rect id="backgroundrect" width="100%" height="100%" x="0" y="0" fill="none" stroke="none"/><defs><filter id="f218" xmlns:inkscape="http://www.inkscape.org/namespaces/inkscape" inkscape:label="Tritone" inkscape:menu="Color" inkscape:menu-tooltip="Create a tritone palette with hue selectable by flood" x="0" y="0" height="1" width="1" color-interpolation-filters="sRGB">
            <feColorMatrix in="SourceGraphic" result="r" type="matrix" values="1 0 0 0 0 1 0 0 0 0 1 0 0 0 0 0 0 0 0 1 "/>
            <feColorMatrix in="SourceGraphic" result="g" type="matrix" values="0 1 0 0 0 0 1 0 0 0 0 1 0 0 0 0 0 0 0 1 "/>
            <feColorMatrix in="SourceGraphic" result="b" type="matrix" values="0 0 1 0 0 0 0 1 0 0 0 0 1 0 0 0 0 0 0 1 "/>
            <feBlend mode="darken" in="r" in2="g" result="minrg"/>
            <feBlend mode="darken" in="minrg" in2="b" result="p"/>
            <feBlend mode="lighten" in="r" in2="g" result="maxrg"/>
            <feBlend mode="lighten" in="maxrg" in2="b" result="q"/>
            <feComponentTransfer in="q" result="q2">
                <feFuncR type="linear" slope="0"/>
            </feComponentTransfer>
            <feBlend mode="lighten" in="p" in2="q2" result="pq"/>
            <feColorMatrix in="pq" result="qminp" type="matrix" values="-1 1 0 0 0 -1 1 0 0 0 -1 1 0 0 0 0 0 0 0 1 "/>
            <feComponentTransfer in="qminp" result="coefsq">
                <feFuncR type="table" tableValues="1 1 0 0 0 1 1"/>
                <feFuncG type="table" tableValues="0 1 1 1 0 0 0"/>
                <feFuncB type="table" tableValues="0 0 0 1 1 1 0"/>
            </feComponentTransfer>
            <feFlood flood-color="#cb00fe" result="result1"/>
            <feComposite in="qminp" in2="result1" result="qminpc" operator="arithmetic" k1="1"/>
            <feComposite in="p" in2="qminpc" result="color" operator="arithmetic" k2="1" k3="1"/>
            <feComposite in="color" in2="SourceGraphic" operator="in" k1="1"/>
        </filter></defs><title>3Fire_Logo</title><g class="currentLayer" style=""><title>Layer 1</title><g class="cls-1 selected" id="svg_1" opacity="1" filter="url(#f218)" fill="#ffffff" fill-opacity="1"><g id="Layer_1" data-name="Layer 1" opacity="1" filter="url(#f218)" fill="#ffffff" fill-opacity="1"><line class="cls-2" y1="979.1300048828125" x2="904.5499877929688" y2="979.1300048828125" id="svg_2" opacity="1" filter="url(#f218)"/><path d="M654.7999978637695,1079.19 H648.2899978637695 v-47.08 c-0.52,-8 -8.07,-11.83 -15.6,-11.69 c-8.34,0.26 -16.66,5.3 -16.66,13.39 v45.38 h-6.62 v-63.84 h6.62 v6.1 c4.83,-5.33 11.59,-6.9 17.72,-6.9 c7.9,0 15.45,3.14 18.19,9.24 c3.5,-6.1 11.67,-9 19.1,-9 c11.31,0.15000000000000002 22.61,5.86 22.61,18.06 v46.31 h-6.62 v-46.42 c0,-8.32 -8.07,-12 -16.13,-12 c-7.79,0 -15.6,3.49 -16.1,11.3 z" id="svg_3" opacity="1" filter="url(#f218)" fill="#ffffff" fill-opacity="1"/><path d="M713.9299978637696,1015.46 v46.16 c0,7.8100000000000005 9,12 17.82,12 s17.82,-4.17 17.82,-12.88 v-45.26 h6.5 v63.73 h-6.5 v-6.14 c-4.82,5.35 -11.58,6.77 -17.69,6.9 c-12.07,0 -24.44,-5.58 -24.44,-18.33 v-46.16 z" id="svg_4" opacity="1" filter="url(#f218)" fill="#ffffff" fill-opacity="1"/><path d="M773.7599978637695,1063.3 c4.66,11.19 19.23,11.19 27.17,9 c5.72,-1.55 10.13,-5.06 10.13,-10.26 c0.12000000000000001,-9 -9,-10.13 -18.07,-11.32 c-12,-1.57 -23.79,-3 -23.67,-17.93 c0.15000000000000002,-9 6.65,-14.57 15,-17 c10.24,-2.87 26.89,-1.6900000000000002 31.84,9.36 l-5.23,3.38 c-4.8,-8.2 -16.74,-8.71 -25,-6.38 c-5.71,1.6900000000000002 -10.13,5.21 -10.13,10.67 c-0.12000000000000001,9 9,10.13 18.07,11.3 c11.85,1.57 23.79,3.13 23.67,18 c-0.13,8.82 -6.65,14.28 -15,16.64 c-11.29,3.26 -30,1 -34.45,-11.73 z" id="svg_5" opacity="1" filter="url(#f218)" fill="#ffffff" fill-opacity="1"/><path d="M829.1399978637695,987.92 h7.4 v11.56 H815.9099978637695 zm0.39000000000000007,27.43 h6.62 v63.84 H829.4899978637695 z" id="svg_6" opacity="1" filter="url(#f218)" fill="#ffffff" fill-opacity="1"/><path d="M899.0599978637696,1062.4 c0,8.57 -6.5,14 -14.81,16.26 v0.14 a39.56,39.56 0 0 1 -19,0 c-8.06,-2.23 -14.82,-7.67 -14.82,-16.65 v-29.78 c0,-8.84 6.890000000000001,-14.17 14.82,-16.38 a37.57,37.57 0 0 1 9.47,-1.3 a39.31,39.31 0 0 1 9.51,1.3 c8.31,2.33 14.81,7.67 14.81,16.38 h-6.5 c0,-5.21 -4.41,-8.58 -10.14,-10.14 a30.43,30.43 0 0 0 -7.68,-1 a31.22,31.22 0 0 0 -7.78,1 c-4.82,1.3 -10,4.44 -10,10.25 v29.67 c0,5.84 5.06,9 10,10.41 a31.36,31.36 0 0 0 15.46,0 h0.13 c5.6,-1.59 10,-5 10,-10.16 z" id="svg_7" opacity="1" filter="url(#f218)" fill="#ffffff" fill-opacity="1"/><path class="cls-3" d="M434.3799978637695,660.38 V603.21 C363.67999786376953,595 323.9399978637695,642.44 322.98999786376953,707.36 H292.9399978637695 v57.27 H244.18999786376952 c21.05,-15.89 32.86,-39.83 32.86,-67.9 c0,-27.16 -10.4,-52.32 -29.23,-70.86 c-21.54,-21.16 -52.83,-32.33 -90.55,-32.33 c-37.45,0 -69.35,12.32 -92.24,35.64 c-21.3,21.69 -33,51.58 -33,84.1 v7.26 h80.8 v-7.26 c0,-20.28 11.68,-44 44.49,-44 c25.73,0 40.48,12.56 40.48,34.45 c0,14.17 -5,33 -48,33 H128.94999786376954 V809 h29.32 c44.4,0 49.53,21.09 49.53,36.95 c0,25.81 -20.82,42.47 -53,42.47 c-32.63,0 -51.56,-17.88 -52,-49.1 l-0.11000000000000001,-7.15 H21.779997863769538 l0.18000000000000002,7.41 c0.8200000000000001,35.66 12.71,66.17 34.4,88.19 c23.49,23.84 57.69,36.44 98.91,36.44 c87.53,0 133.34,-59 133.34,-117.24 c0,-28.78 -10.35,-52.81 -28.76,-68.91 h63 l0.16000000000000003,0.1 V956.32 h63.93 V778.11 h72.65 V956.32 H523.4899978637695 v-249 H386.91999786376954 C387.40999786376955,672.94 402.89999786376956,658.42 434.3799978637695,660.38 zM274.09999786376954,846.92 c0,51.05 -40.83,102.75 -118.83,102.75 c-69.1,0 -113.9,-39.26 -118.48,-103 h51.85 c3.39,34.9 28.17,56.27 66.12,56.27 c40.4,0 67.52,-22.9 67.52,-57 c0,-23.47 -11.1,-51.45 -64,-51.45 H143.40999786376952 V751.18 h6.33 c51.64,0 62.51,-25.79 62.51,-47.44 c0,-30.18 -21.06,-48.92 -55,-48.92 c-37.36,0 -55.79,24.69 -58.59,51.22 h-52 c3.42,-58.06 47.94,-98 110.59,-98 c72.73,0 105.29,44.56 105.29,88.72 c0,28.55 -14.63,52 -40.12,64.3 l-16.87,8.14 l18,5.32 C269.16999786376954,788 274.09999786376954,829.65 274.09999786376954,846.92 zm-31.3,-80.34 c-0.23,-0.14 -0.49000000000000005,-0.24000000000000002 -0.7100000000000001,-0.36000000000000004 l0.14,-0.11000000000000001 zm565.8,-66 c-70.23,0 -127.89,59.12 -127.89,131.26 s57.66,130.32 127.89,130.32 c62,0 106,-34.41 120.6,-85.27 H860.9099978637695 C850.2599978637695,896.73 829.4299978637696,906 808.0999978637695,906 c-30,0 -54.24,-18.9 -62.48,-49.41 h188.44 C943.2499978637695,757.72 882.2199978637695,700.56 808.5999978637695,700.56 zm-62,103.66 c9.23,-29.06 32.47,-47.47 61.52,-47.47 c30.52,0 54.74,18.41 62.49,47.47 zM680.7099978637696,764 c-25.68,-2.89 -47,0 -61.52,15.51 c-13.56,14.06 -16,34.37 -16,54.25 V956.32 h-64 V706.88 h61 v24.69 c20.35,-25.21 50.37,-34.37 80.41,-29.55 zm-194,-159.2 H523.4899978637695 v59.57 H459.5699978637696 V637.81 z" id="svg_8" opacity="1" filter="url(#f218)" fill="#ffffff" fill-opacity="1"/><path class="cls-4" d="M469.4199978637695,215.31 a494.74,494.74 0 0 0 -30.68,-80 C467.7999978637695,82.91 511.48999786376953,37.24 556.8999978637695,0 c14.2,24.81 20.31,50.54 28.72,77.06 A462.8,462.8 0 0 0 469.4199978637695,215.31 z" id="svg_9" opacity="1" filter="url(#f218)" fill="#ffffff" fill-opacity="1"/><path class="cls-5" d="M483.5699978637696,275.41 c-0.09000000000000002,-0.5800000000000001 -0.18000000000000002,-1.1600000000000001 -0.33000000000000007,-1.7400000000000002 a598.75,598.75 0 0 0 -13.82,-58.36 A462.8,462.8 0 0 1 585.6199978637695,77.06 a408.55,408.55 0 0 1 13.8,58.21 A463.11,463.11 0 0 0 483.5699978637696,275.41 z" id="svg_10" opacity="1" filter="url(#f218)" fill="#ffffff" fill-opacity="1"/><path class="cls-6" d="M441.8699978637695,275 q-9.63,25.49 -16.74,51.39 a470.91,470.91 0 0 0 -21.72,-56.79 c-3.07,-6.65 -6.22,-13.21 -9.44,-19.63 a462.72,462.72 0 0 1 44.77,-114.67 a494.74,494.74 0 0 1 30.68,80 A470.07,470.07 0 0 0 441.8699978637695,275 z" id="svg_11" opacity="1" filter="url(#f218)" fill="#ffffff" fill-opacity="1"/><path class="cls-7" d="M483.5699978637696,275.41 a2.85,2.85 0 0 0 -0.16000000000000003,0.30000000000000004 a550.52,550.52 0 0 0 -44.38,108.08 a465.76,465.76 0 0 0 -13.9,-57.37 q7.08,-25.86 16.74,-51.39 a470.07,470.07 0 0 1 27.55,-59.72 a598.75,598.75 0 0 1 13.82,58.36 C483.3899978637695,274.25 483.48999786376953,274.83 483.5699978637696,275.41 z" id="svg_12" opacity="1" filter="url(#f218)" fill="#ffffff" fill-opacity="1"/><path class="cls-8" d="M483.5699978637696,275.41 a2.85,2.85 0 0 0 -0.16000000000000003,0.30000000000000004 a550.52,550.52 0 0 0 -44.38,108.08 a465.76,465.76 0 0 0 -13.9,-57.37 q7.08,-25.86 16.74,-51.39 a470.07,470.07 0 0 1 27.55,-59.72 a598.75,598.75 0 0 1 13.82,58.36 C483.3899978637695,274.25 483.48999786376953,274.83 483.5699978637696,275.41 z" id="svg_13" opacity="1" filter="url(#f218)" fill="#ffffff" fill-opacity="1"/><path class="cls-9" d="M425.1299978637695,326.42 c-12.74,46.6 -19.13,93.84 -18.41,140.11 a468.13,468.13 0 0 0 -27.41,-68.74 a546.41,546.41 0 0 1 9.38,-123.5 c1.56,-8.21 3.34,-16.3 5.28,-24.29 c3.22,6.42 6.37,13 9.44,19.63 A470.91,470.91 0 0 1 425.1299978637695,326.42 z" id="svg_14" opacity="1" filter="url(#f218)" fill="#ffffff" fill-opacity="1"/><path class="cls-10" d="M425.1299978637695,326.42 c-12.74,46.6 -19.13,93.84 -18.41,140.11 a468.13,468.13 0 0 0 -27.41,-68.74 a546.41,546.41 0 0 1 9.38,-123.5 c1.56,-8.21 3.34,-16.3 5.28,-24.29 c3.22,6.42 6.37,13 9.44,19.63 A470.91,470.91 0 0 1 425.1299978637695,326.42 z" id="svg_15" opacity="1" filter="url(#f218)" fill="#ffffff" fill-opacity="1"/><path class="cls-7" d="M420.70999786376956,524.71 a468.47,468.47 0 0 0 -14,-58.18 c-0.7200000000000001,-46.27 5.67,-93.51 18.41,-140.11 a465.76,465.76 0 0 1 13.9,57.37 C425.60999786376954,430.42 419.16999786376954,477.93 420.70999786376956,524.71 z" id="svg_16" opacity="1" filter="url(#f218)" fill="#ffffff" fill-opacity="1"/><path class="cls-9" d="M420.70999786376956,524.71 a468.47,468.47 0 0 0 -14,-58.18 c-0.7200000000000001,-46.27 5.67,-93.51 18.41,-140.11 a465.76,465.76 0 0 1 13.9,57.37 C425.60999786376954,430.42 419.16999786376954,477.93 420.70999786376956,524.71 z" id="svg_17" opacity="1" filter="url(#f218)" fill="#ffffff" fill-opacity="1"/><path class="cls-6" d="M420.70999786376956,524.71 a468.47,468.47 0 0 0 -14,-58.18 c-0.7200000000000001,-46.27 5.67,-93.51 18.41,-140.11 a465.76,465.76 0 0 1 13.9,57.37 C425.60999786376954,430.42 419.16999786376954,477.93 420.70999786376956,524.71 z" id="svg_18" opacity="1" filter="url(#f218)" fill="#ffffff" fill-opacity="1"/><path class="cls-9" d="M420.08999786376955,566.2 c-2.8200000000000003,-5.72 -5.77,-11.41 -8.83,-17 C391.89999786376956,502 381.42999786376953,450.7 379.3099978637695,397.79 a468.13,468.13 0 0 1 27.41,68.74 A419.71,419.71 0 0 0 420.08999786376955,566.2 z" id="svg_19" opacity="1" filter="url(#f218)" fill="#ffffff" fill-opacity="1"/><path class="cls-11" d="M420.08999786376955,566.2 c-2.8200000000000003,-5.72 -5.77,-11.41 -8.83,-17 C391.89999786376956,502 381.42999786376953,450.7 379.3099978637695,397.79 a468.13,468.13 0 0 1 27.41,68.74 A419.71,419.71 0 0 0 420.08999786376955,566.2 z" id="svg_20" opacity="1" filter="url(#f218)" fill="#ffffff" fill-opacity="1"/><path class="cls-10" d="M420.08999786376955,566.2 c-2.8200000000000003,-5.72 -5.77,-11.41 -8.83,-17 C391.89999786376956,502 381.42999786376953,450.7 379.3099978637695,397.79 a468.13,468.13 0 0 1 27.41,68.74 A419.71,419.71 0 0 0 420.08999786376955,566.2 z" id="svg_21" opacity="1" filter="url(#f218)" fill="#ffffff" fill-opacity="1"/><path class="cls-7" d="M426.20999786376956,578.92 q-3,-6.4 -6.12,-12.72 a419.71,419.71 0 0 1 -13.37,-99.67 a468.47,468.47 0 0 1 14,58.18 A393.9,393.9 0 0 0 426.20999786376956,578.92 z" id="svg_22" opacity="1" filter="url(#f218)" fill="#ffffff" fill-opacity="1"/><path class="cls-9" d="M426.20999786376956,578.92 q-3,-6.4 -6.12,-12.72 a419.71,419.71 0 0 1 -13.37,-99.67 a468.47,468.47 0 0 1 14,58.18 A393.9,393.9 0 0 0 426.20999786376956,578.92 z" id="svg_23" opacity="1" filter="url(#f218)" fill="#ffffff" fill-opacity="1"/><path class="cls-11" d="M426.20999786376956,578.92 q-3,-6.4 -6.12,-12.72 a419.71,419.71 0 0 1 -13.37,-99.67 a468.47,468.47 0 0 1 14,58.18 A393.9,393.9 0 0 0 426.20999786376956,578.92 z" id="svg_24" opacity="1" filter="url(#f218)" fill="#ffffff" fill-opacity="1"/><path class="cls-6" d="M426.20999786376956,578.92 q-3,-6.4 -6.12,-12.72 a419.71,419.71 0 0 1 -13.37,-99.67 a468.47,468.47 0 0 1 14,58.18 A393.9,393.9 0 0 0 426.20999786376956,578.92 z" id="svg_25" opacity="1" filter="url(#f218)" fill="#ffffff" fill-opacity="1"/><path class="cls-12" d="M421.96999786376955,573.1 q-5.75,-11.76 -10.71,-23.92 c3.06,5.61 6,11.3 8.83,17 z" id="svg_26" opacity="1" filter="url(#f218)" fill="#ffffff" fill-opacity="1"/><path class="cls-9" d="M421.96999786376955,573.1 q-5.75,-11.76 -10.71,-23.92 c3.06,5.61 6,11.3 8.83,17 z" id="svg_27" opacity="1" filter="url(#f218)" fill="#ffffff" fill-opacity="1"/><path class="cls-11" d="M421.96999786376955,573.1 q-5.75,-11.76 -10.71,-23.92 c3.06,5.61 6,11.3 8.83,17 z" id="svg_28" opacity="1" filter="url(#f218)" fill="#ffffff" fill-opacity="1"/><path class="cls-6" d="M421.96999786376955,573.1 q-5.75,-11.76 -10.71,-23.92 c3.06,5.61 6,11.3 8.83,17 z" id="svg_29" opacity="1" filter="url(#f218)" fill="#ffffff" fill-opacity="1"/><path class="cls-7" d="M426.20999786376956,578.92 c0.2,1.24 0.43000000000000005,2.5300000000000002 0.6600000000000001,3.8200000000000003 c-1.6700000000000002,-3.2 -3.2800000000000002,-6.39 -4.9,-9.64 l-1.8800000000000001,-6.9 Q423.2599978637695,572.51 426.20999786376956,578.92 z" id="svg_30" opacity="1" filter="url(#f218)" fill="#ffffff" fill-opacity="1"/><path class="cls-12" d="M426.20999786376956,578.92 c0.2,1.24 0.43000000000000005,2.5300000000000002 0.6600000000000001,3.8200000000000003 c-1.6700000000000002,-3.2 -3.2800000000000002,-6.39 -4.9,-9.64 l-1.8800000000000001,-6.9 Q423.2599978637695,572.51 426.20999786376956,578.92 z" id="svg_31" opacity="1" filter="url(#f218)" fill="#ffffff" fill-opacity="1"/><path class="cls-9" d="M426.20999786376956,578.92 c0.2,1.24 0.43000000000000005,2.5300000000000002 0.6600000000000001,3.8200000000000003 c-1.6700000000000002,-3.2 -3.2800000000000002,-6.39 -4.9,-9.64 l-1.8800000000000001,-6.9 Q423.2599978637695,572.51 426.20999786376956,578.92 z" id="svg_32" opacity="1" filter="url(#f218)" fill="#ffffff" fill-opacity="1"/><path class="cls-11" d="M426.20999786376956,578.92 c0.2,1.24 0.43000000000000005,2.5300000000000002 0.6600000000000001,3.8200000000000003 c-1.6700000000000002,-3.2 -3.2800000000000002,-6.39 -4.9,-9.64 l-1.8800000000000001,-6.9 Q423.2599978637695,572.51 426.20999786376956,578.92 z" id="svg_33" opacity="1" filter="url(#f218)" fill="#ffffff" fill-opacity="1"/><path class="cls-6" d="M426.20999786376956,578.92 c0.2,1.24 0.43000000000000005,2.5300000000000002 0.6600000000000001,3.8200000000000003 c-1.6700000000000002,-3.2 -3.2800000000000002,-6.39 -4.9,-9.64 l-1.8800000000000001,-6.9 Q423.2599978637695,572.51 426.20999786376956,578.92 z" id="svg_34" opacity="1" filter="url(#f218)" fill="#ffffff" fill-opacity="1"/><path class="cls-13" d="M420.70999786376956,524.71 c-1.54,-46.78 4.9,-94.29 18.32,-140.92 a550.52,550.52 0 0 1 44.38,-108.08 a2.85,2.85 0 0 1 0.16000000000000003,-0.30000000000000004 A463.11,463.11 0 0 1 599.4199978637695,135.27 c9.14,56.49 7.1,116.11 -4.6,178 A466.24,466.24 0 0 1 434.3799978637695,586.09 c-0.77,0.33000000000000007 -1.56,0.6300000000000001 -2.35,0.9400000000000001 l-1.87,0.78 l-0.49000000000000005,0.2 c-0.9500000000000001,-1.7600000000000002 -1.87,-3.52 -2.8,-5.27 c-0.23,-1.29 -0.46,-2.58 -0.6600000000000001,-3.8200000000000003 A393.9,393.9 0 0 1 420.70999786376956,524.71 z" id="svg_35" opacity="1" filter="url(#f218)" fill="#ffffff" fill-opacity="1"/></g></g></g></svg>