<svg xmlns="http://www.w3.org/2000/svg" xmlns:xlink="http://www.w3.org/1999/xlink" viewBox="0 0 934.97 1080"><defs><style>.cls-1{isolation:isolate;}.cls-2,.cls-4{fill:none;}.cls-2{stroke:#000;stroke-miterlimit:10;stroke-width:0.36px;}.cls-3{fill:url(#linear-gradient);}.cls-5{fill:#b305b8;}.cls-10,.cls-11,.cls-12,.cls-5,.cls-6,.cls-7,.cls-9{mix-blend-mode:multiply;}.cls-6{fill:#ff1f1f;}.cls-7{fill:#3c1280;}.cls-8{fill:#510000;mix-blend-mode:screen;}.cls-9{fill:#808018;}.cls-10{fill:#1d1d1b;}.cls-11{fill:#805c40;}.cls-12{fill:#03805a;}.cls-13{fill:#ff0;}</style><linearGradient id="linear-gradient" x1="94.29" y1="778.85" x2="1007.49" y2="778.85" gradientUnits="userSpaceOnUse"><stop offset="0" stop-color="#ff0500"/><stop offset="0.01" stop-color="#f60500"/><stop offset="0.05" stop-color="#c80400"/><stop offset="0.09" stop-color="#9d0300"/><stop offset="0.14" stop-color="#770200"/><stop offset="0.2" stop-color="#570200"/><stop offset="0.25" stop-color="#3b0100"/><stop offset="0.32" stop-color="#250100"/><stop offset="0.4" stop-color="#140000"/><stop offset="0.49" stop-color="#090000"/><stop offset="0.63" stop-color="#020000"/><stop offset="1"/></linearGradient></defs><title>3Fire_Logo</title><g class="cls-1"><g id="Layer_1" data-name="Layer 1"><line class="cls-2" y1="979.13" x2="904.55" y2="979.13"/><path d="M727.31,1079.19H720.8v-47.08c-.52-8-8.07-11.83-15.6-11.69-8.34.26-16.66,5.3-16.66,13.39v45.38h-6.62v-63.84h6.62v6.1c4.83-5.33,11.59-6.9,17.72-6.9,7.9,0,15.45,3.14,18.19,9.24,3.5-6.1,11.67-9,19.1-9,11.31.15,22.61,5.86,22.61,18.06v46.31h-6.62v-46.42c0-8.32-8.07-12-16.13-12-7.79,0-15.6,3.49-16.1,11.3Z" transform="translate(-72.51 0)"/><path d="M786.44,1015.46v46.16c0,7.81,9,12,17.82,12s17.82-4.17,17.82-12.88v-45.26h6.5v63.73h-6.5v-6.14c-4.82,5.35-11.58,6.77-17.69,6.9-12.07,0-24.44-5.58-24.44-18.33v-46.16Z" transform="translate(-72.51 0)"/><path d="M846.27,1063.3c4.66,11.19,19.23,11.19,27.17,9,5.72-1.55,10.13-5.06,10.13-10.26.12-9-9-10.13-18.07-11.32-12-1.57-23.79-3-23.67-17.93.15-9,6.65-14.57,15-17,10.24-2.87,26.89-1.69,31.84,9.36l-5.23,3.38c-4.8-8.2-16.74-8.71-25-6.38-5.71,1.69-10.13,5.21-10.13,10.67-.12,9,9,10.13,18.07,11.3,11.85,1.57,23.79,3.13,23.67,18-.13,8.82-6.65,14.28-15,16.64-11.29,3.26-30,1-34.45-11.73Z" transform="translate(-72.51 0)"/><path d="M901.65,987.92h7.4v11.56H888.42Zm.39,27.43h6.62v63.84H902Z" transform="translate(-72.51 0)"/><path d="M971.57,1062.4c0,8.57-6.5,14-14.81,16.26v.14a39.56,39.56,0,0,1-19,0c-8.06-2.23-14.82-7.67-14.82-16.65v-29.78c0-8.84,6.89-14.17,14.82-16.38a37.57,37.57,0,0,1,9.47-1.3,39.31,39.31,0,0,1,9.51,1.3c8.31,2.33,14.81,7.67,14.81,16.38h-6.5c0-5.21-4.41-8.58-10.14-10.14a30.43,30.43,0,0,0-7.68-1,31.22,31.22,0,0,0-7.78,1c-4.82,1.3-10,4.44-10,10.25v29.67c0,5.84,5.06,9,10,10.41a31.36,31.36,0,0,0,15.46,0h.13c5.6-1.59,10-5,10-10.16Z" transform="translate(-72.51 0)"/><path class="cls-3" d="M506.89,660.38V603.21C436.19,595,396.45,642.44,395.5,707.36H365.45v57.27H316.7c21.05-15.89,32.86-39.83,32.86-67.9,0-27.16-10.4-52.32-29.23-70.86-21.54-21.16-52.83-32.33-90.55-32.33-37.45,0-69.35,12.32-92.24,35.64-21.3,21.69-33,51.58-33,84.1v7.26h80.8v-7.26c0-20.28,11.68-44,44.49-44,25.73,0,40.48,12.56,40.48,34.45,0,14.17-5,33-48,33H201.46V809h29.32c44.4,0,49.53,21.09,49.53,36.95,0,25.81-20.82,42.47-53,42.47-32.63,0-51.56-17.88-52-49.1l-.11-7.15H94.29l.18,7.41c.82,35.66,12.71,66.17,34.4,88.19,23.49,23.84,57.69,36.44,98.91,36.44,87.53,0,133.34-59,133.34-117.24,0-28.78-10.35-52.81-28.76-68.91h63l.16.1V956.32h63.93V778.11h72.65V956.32H596v-249H459.43C459.92,672.94,475.41,658.42,506.89,660.38ZM346.61,846.92c0,51.05-40.83,102.75-118.83,102.75-69.1,0-113.9-39.26-118.48-103h51.85c3.39,34.9,28.17,56.27,66.12,56.27,40.4,0,67.52-22.9,67.52-57,0-23.47-11.1-51.45-64-51.45H215.92V751.18h6.33c51.64,0,62.51-25.79,62.51-47.44,0-30.18-21.06-48.92-55-48.92-37.36,0-55.79,24.69-58.59,51.22h-52c3.42-58.06,47.94-98,110.59-98,72.73,0,105.29,44.56,105.29,88.72,0,28.55-14.63,52-40.12,64.3l-16.87,8.14,18,5.32C341.68,788,346.61,829.65,346.61,846.92Zm-31.3-80.34c-.23-.14-.49-.24-.71-.36l.14-.11Zm565.8-66c-70.23,0-127.89,59.12-127.89,131.26s57.66,130.32,127.89,130.32c62,0,106-34.41,120.6-85.27H933.42C922.77,896.73,901.94,906,880.61,906c-30,0-54.24-18.9-62.48-49.41h188.44C1015.76,757.72,954.73,700.56,881.11,700.56Zm-62,103.66c9.23-29.06,32.47-47.47,61.52-47.47,30.52,0,54.74,18.41,62.49,47.47ZM753.22,764c-25.68-2.89-47,0-61.52,15.51-13.56,14.06-16,34.37-16,54.25V956.32h-64V706.88h61v24.69c20.35-25.21,50.37-34.37,80.41-29.55Zm-194-159.2H596v59.57H532.08V637.81Z" transform="translate(-72.51 0)"/><path class="cls-4" d="M541.93,215.31a494.74,494.74,0,0,0-30.68-80C540.31,82.91,584,37.24,629.41,0c14.2,24.81,20.31,50.54,28.72,77.06A462.8,462.8,0,0,0,541.93,215.31Z" transform="translate(-72.51 0)"/><path class="cls-5" d="M556.08,275.41c-.09-.58-.18-1.16-.33-1.74a598.75,598.75,0,0,0-13.82-58.36A462.8,462.8,0,0,1,658.13,77.06a408.55,408.55,0,0,1,13.8,58.21A463.11,463.11,0,0,0,556.08,275.41Z" transform="translate(-72.51 0)"/><path class="cls-6" d="M514.38,275q-9.63,25.49-16.74,51.39a470.91,470.91,0,0,0-21.72-56.79c-3.07-6.65-6.22-13.21-9.44-19.63a462.72,462.72,0,0,1,44.77-114.67,494.74,494.74,0,0,1,30.68,80A470.07,470.07,0,0,0,514.38,275Z" transform="translate(-72.51 0)"/><path class="cls-7" d="M556.08,275.41a2.85,2.85,0,0,0-.16.3,550.52,550.52,0,0,0-44.38,108.08,465.76,465.76,0,0,0-13.9-57.37q7.08-25.86,16.74-51.39a470.07,470.07,0,0,1,27.55-59.72,598.75,598.75,0,0,1,13.82,58.36C555.9,274.25,556,274.83,556.08,275.41Z" transform="translate(-72.51 0)"/><path class="cls-8" d="M556.08,275.41a2.85,2.85,0,0,0-.16.3,550.52,550.52,0,0,0-44.38,108.08,465.76,465.76,0,0,0-13.9-57.37q7.08-25.86,16.74-51.39a470.07,470.07,0,0,1,27.55-59.72,598.75,598.75,0,0,1,13.82,58.36C555.9,274.25,556,274.83,556.08,275.41Z" transform="translate(-72.51 0)"/><path class="cls-9" d="M497.64,326.42c-12.74,46.6-19.13,93.84-18.41,140.11a468.13,468.13,0,0,0-27.41-68.74,546.41,546.41,0,0,1,9.38-123.5c1.56-8.21,3.34-16.3,5.28-24.29,3.22,6.42,6.37,13,9.44,19.63A470.91,470.91,0,0,1,497.64,326.42Z" transform="translate(-72.51 0)"/><path class="cls-10" d="M497.64,326.42c-12.74,46.6-19.13,93.84-18.41,140.11a468.13,468.13,0,0,0-27.41-68.74,546.41,546.41,0,0,1,9.38-123.5c1.56-8.21,3.34-16.3,5.28-24.29,3.22,6.42,6.37,13,9.44,19.63A470.91,470.91,0,0,1,497.64,326.42Z" transform="translate(-72.51 0)"/><path class="cls-7" d="M493.22,524.71a468.47,468.47,0,0,0-14-58.18c-.72-46.27,5.67-93.51,18.41-140.11a465.76,465.76,0,0,1,13.9,57.37C498.12,430.42,491.68,477.93,493.22,524.71Z" transform="translate(-72.51 0)"/><path class="cls-9" d="M493.22,524.71a468.47,468.47,0,0,0-14-58.18c-.72-46.27,5.67-93.51,18.41-140.11a465.76,465.76,0,0,1,13.9,57.37C498.12,430.42,491.68,477.93,493.22,524.71Z" transform="translate(-72.51 0)"/><path class="cls-6" d="M493.22,524.71a468.47,468.47,0,0,0-14-58.18c-.72-46.27,5.67-93.51,18.41-140.11a465.76,465.76,0,0,1,13.9,57.37C498.12,430.42,491.68,477.93,493.22,524.71Z" transform="translate(-72.51 0)"/><path class="cls-9" d="M492.6,566.2c-2.82-5.72-5.77-11.41-8.83-17C464.41,502,453.94,450.7,451.82,397.79a468.13,468.13,0,0,1,27.41,68.74A419.71,419.71,0,0,0,492.6,566.2Z" transform="translate(-72.51 0)"/><path class="cls-11" d="M492.6,566.2c-2.82-5.72-5.77-11.41-8.83-17C464.41,502,453.94,450.7,451.82,397.79a468.13,468.13,0,0,1,27.41,68.74A419.71,419.71,0,0,0,492.6,566.2Z" transform="translate(-72.51 0)"/><path class="cls-10" d="M492.6,566.2c-2.82-5.72-5.77-11.41-8.83-17C464.41,502,453.94,450.7,451.82,397.79a468.13,468.13,0,0,1,27.41,68.74A419.71,419.71,0,0,0,492.6,566.2Z" transform="translate(-72.51 0)"/><path class="cls-7" d="M498.72,578.92q-3-6.4-6.12-12.72a419.71,419.71,0,0,1-13.37-99.67,468.47,468.47,0,0,1,14,58.18A393.9,393.9,0,0,0,498.72,578.92Z" transform="translate(-72.51 0)"/><path class="cls-9" d="M498.72,578.92q-3-6.4-6.12-12.72a419.71,419.71,0,0,1-13.37-99.67,468.47,468.47,0,0,1,14,58.18A393.9,393.9,0,0,0,498.72,578.92Z" transform="translate(-72.51 0)"/><path class="cls-11" d="M498.72,578.92q-3-6.4-6.12-12.72a419.71,419.71,0,0,1-13.37-99.67,468.47,468.47,0,0,1,14,58.18A393.9,393.9,0,0,0,498.72,578.92Z" transform="translate(-72.51 0)"/><path class="cls-6" d="M498.72,578.92q-3-6.4-6.12-12.72a419.71,419.71,0,0,1-13.37-99.67,468.47,468.47,0,0,1,14,58.18A393.9,393.9,0,0,0,498.72,578.92Z" transform="translate(-72.51 0)"/><path class="cls-12" d="M494.48,573.1q-5.75-11.76-10.71-23.92c3.06,5.61,6,11.3,8.83,17Z" transform="translate(-72.51 0)"/><path class="cls-9" d="M494.48,573.1q-5.75-11.76-10.71-23.92c3.06,5.61,6,11.3,8.83,17Z" transform="translate(-72.51 0)"/><path class="cls-11" d="M494.48,573.1q-5.75-11.76-10.71-23.92c3.06,5.61,6,11.3,8.83,17Z" transform="translate(-72.51 0)"/><path class="cls-6" d="M494.48,573.1q-5.75-11.76-10.71-23.92c3.06,5.61,6,11.3,8.83,17Z" transform="translate(-72.51 0)"/><path class="cls-7" d="M498.72,578.92c.2,1.24.43,2.53.66,3.82-1.67-3.2-3.28-6.39-4.9-9.64l-1.88-6.9Q495.77,572.51,498.72,578.92Z" transform="translate(-72.51 0)"/><path class="cls-12" d="M498.72,578.92c.2,1.24.43,2.53.66,3.82-1.67-3.2-3.28-6.39-4.9-9.64l-1.88-6.9Q495.77,572.51,498.72,578.92Z" transform="translate(-72.51 0)"/><path class="cls-9" d="M498.72,578.92c.2,1.24.43,2.53.66,3.82-1.67-3.2-3.28-6.39-4.9-9.64l-1.88-6.9Q495.77,572.51,498.72,578.92Z" transform="translate(-72.51 0)"/><path class="cls-11" d="M498.72,578.92c.2,1.24.43,2.53.66,3.82-1.67-3.2-3.28-6.39-4.9-9.64l-1.88-6.9Q495.77,572.51,498.72,578.92Z" transform="translate(-72.51 0)"/><path class="cls-6" d="M498.72,578.92c.2,1.24.43,2.53.66,3.82-1.67-3.2-3.28-6.39-4.9-9.64l-1.88-6.9Q495.77,572.51,498.72,578.92Z" transform="translate(-72.51 0)"/><path class="cls-13" d="M493.22,524.71c-1.54-46.78,4.9-94.29,18.32-140.92a550.52,550.52,0,0,1,44.38-108.08,2.85,2.85,0,0,1,.16-.3A463.11,463.11,0,0,1,671.93,135.27c9.14,56.49,7.1,116.11-4.6,178A466.24,466.24,0,0,1,506.89,586.09c-.77.33-1.56.63-2.35.94l-1.87.78-.49.2c-.95-1.76-1.87-3.52-2.8-5.27-.23-1.29-.46-2.58-.66-3.82A393.9,393.9,0,0,1,493.22,524.71Z" transform="translate(-72.51 0)"/></g></g></svg>