<?xml version="1.0" encoding="utf-8"?>
<!-- Generator: Adobe Illustrator 22.0.0, SVG Export Plug-In . SVG Version: 6.00 Build 0)  -->
<svg version="1.1" id="Layer_1" xmlns="http://www.w3.org/2000/svg" xmlns:xlink="http://www.w3.org/1999/xlink" x="0px" y="0px"
	 viewBox="0 0 935 486.6" style="enable-background:new 0 0 935 486.6;" xml:space="preserve">
<style type="text/css">
	.st0{fill:none;stroke:#FFFFFF;stroke-width:0.36;stroke-miterlimit:10;}
	.st1{fill:#FFFFFF;}
</style>
<title>3Fire_Logo</title>
<g>
	<g id="Layer_1_1_">
		<line class="st0" x1="0" y1="385.6" x2="904.5" y2="385.6"/>
		<path class="st1" d="M654.8,485.6h-6.5v-47.1c-0.5-8-8.1-11.8-15.6-11.7c-8.3,0.3-16.7,5.3-16.7,13.4v45.4h-6.6v-63.8h6.6v6.1
			c4.8-5.3,11.6-6.9,17.7-6.9c7.9,0,15.5,3.1,18.2,9.2c3.5-6.1,11.7-9,19.1-9c11.3,0.2,22.6,5.9,22.6,18.1v46.3H687v-46.4
			c0-8.3-8.1-12-16.1-12c-7.8,0-15.6,3.5-16.1,11.3V485.6z"/>
		<path class="st1" d="M713.9,421.9v46.2c0,7.8,9,12,17.8,12s17.8-4.2,17.8-12.9v-45.3h6.5v63.7h-6.5v-6.1
			c-4.8,5.3-11.6,6.8-17.7,6.9c-12.1,0-24.4-5.6-24.4-18.3v-46.2L713.9,421.9z"/>
		<path class="st1" d="M773.8,469.8c4.7,11.2,19.2,11.2,27.2,9c5.7-1.6,10.1-5.1,10.1-10.3c0.1-9-9-10.1-18.1-11.3
			c-12-1.6-23.8-3-23.7-17.9c0.2-9,6.7-14.6,15-17c10.2-2.9,26.9-1.7,31.8,9.4l-5.2,3.4c-4.8-8.2-16.7-8.7-25-6.4
			c-5.7,1.7-10.1,5.2-10.1,10.7c-0.1,9,9,10.1,18.1,11.3c11.8,1.6,23.8,3.1,23.7,18c-0.1,8.8-6.7,14.3-15,16.6
			c-11.3,3.3-30,1-34.5-11.7L773.8,469.8z"/>
		<path class="st1" d="M829.1,394.4h7.4v11.6h-20.6L829.1,394.4z M829.5,421.8h6.6v63.8h-6.7L829.5,421.8z"/>
		<path class="st1" d="M899.1,468.9c0,8.6-6.5,14-14.8,16.3v0.1c-6.2,1.5-12.8,1.5-19,0c-8.1-2.2-14.8-7.7-14.8-16.7v-29.8
			c0-8.8,6.9-14.2,14.8-16.4c3.1-0.8,6.3-1.3,9.5-1.3c3.2,0,6.4,0.5,9.5,1.3c8.3,2.3,14.8,7.7,14.8,16.4h-6.5
			c0-5.2-4.4-8.6-10.1-10.1c-2.5-0.7-5.1-1-7.7-1c-2.6,0-5.2,0.3-7.8,1c-4.8,1.3-10,4.4-10,10.3v29.7c0,5.8,5.1,9,10,10.4
			c5.1,1.3,10.4,1.3,15.5,0h0.1c5.6-1.6,10-5,10-10.2H899.1z"/>
		<path class="st1" d="M434.4,66.8V9.7C363.7,1.5,323.9,48.9,323,113.8h-30v57.3h-48.8c21-15.9,32.9-39.8,32.9-67.9
			c0-27.2-10.4-52.3-29.2-70.9C226.3,11.2,195,0,157.3,0C119.8,0,87.9,12.3,65,35.6c-21.3,21.7-33,51.6-33,84.1v7.3h80.8v-7.3
			c0-20.3,11.7-44,44.5-44c25.7,0,40.5,12.6,40.5,34.5c0,14.2-5,33-48,33H129v72.3h29.3c44.4,0,49.5,21.1,49.5,37
			c0,25.8-20.8,42.5-53,42.5c-32.6,0-51.6-17.9-52-49.1l-0.1-7.2H21.8L22,246c0.8,35.7,12.7,66.2,34.4,88.2
			c23.5,23.8,57.7,36.4,98.9,36.4c87.5,0,133.3-59,133.3-117.2c0-28.8-10.4-52.8-28.8-68.9h63l0.2,0.1v178.2h63.9V184.6h72.6v178.2
			h63.9v-249H386.9C387.4,79.4,402.9,64.9,434.4,66.8z M274.1,253.4c0,51-40.8,102.8-118.8,102.8c-69.1,0-113.9-39.3-118.5-103h51.8
			c3.4,34.9,28.2,56.3,66.1,56.3c40.4,0,67.5-22.9,67.5-57c0-23.5-11.1-51.5-64-51.5h-14.9v-43.3h6.3c51.6,0,62.5-25.8,62.5-47.4
			c0-30.2-21.1-48.9-55-48.9c-37.4,0-55.8,24.7-58.6,51.2h-52c3.4-58.1,47.9-98,110.6-98c72.7,0,105.3,44.6,105.3,88.7
			c0,28.5-14.6,52-40.1,64.3l-16.9,8.1l18,5.3C269.2,194.5,274.1,236.1,274.1,253.4z M242.8,173c-0.2-0.1-0.5-0.2-0.7-0.4l0.1-0.1
			L242.8,173z M808.6,107c-70.2,0-127.9,59.1-127.9,131.3s57.7,130.3,127.9,130.3c62,0,106-34.4,120.6-85.3h-68.3
			c-10.6,19.8-31.5,29.1-52.8,29.1c-30,0-54.2-18.9-62.5-49.4h188.4C943.3,164.2,882.2,107,808.6,107L808.6,107z M746.6,210.7
			c9.2-29.1,32.5-47.5,61.5-47.5c30.5,0,54.7,18.4,62.5,47.5H746.6z M680.7,170.5c-25.7-2.9-47,0-61.5,15.5
			c-13.6,14.1-16,34.4-16,54.3v122.6h-64V113.3h61V138c20.3-25.2,50.4-34.4,80.4-29.5L680.7,170.5z M486.7,11.3h36.8v59.6h-63.9
			V44.3L486.7,11.3z"/>
	</g>
</g>
</svg>
